<svg width="217" height="147" viewBox="0 0 217 147" fill="none" xmlns="http://www.w3.org/2000/svg">
<path d="M167.612 146.012C107.754 150.379 54.6978 129.313 23.4331 76.4139C12.7978 58.3707 3.59817 37.8732 1.00372 15.9946C0.87818 14.9495 1.32678 14.3139 2.34942 14.0878L61.1968 0.498775C61.5049 0.429334 61.824 0.425067 62.1339 0.486236C62.4437 0.547392 62.7373 0.672575 62.9959 0.853876C63.2545 1.03518 63.4725 1.26859 63.6356 1.53903C63.7988 1.80946 63.9037 2.11099 63.9436 2.42434C65.7505 17.8372 70.5488 31.9468 78.3384 44.7531C105.419 89.3433 153.328 85.9289 197.185 75.0466C197.41 74.9899 197.645 74.9784 197.874 75.013C198.104 75.0476 198.324 75.1276 198.523 75.2482C198.721 75.3688 198.894 75.5277 199.03 75.7156C199.167 75.9036 199.265 76.1168 199.318 76.3429C203.872 95.3522 209.532 114.434 216.298 133.587C217.087 135.805 216.348 137.234 214.081 137.876C199.059 142.147 183.569 144.859 167.612 146.012Z" fill="#F9E8CE"/>
</svg>
