<svg width="142" height="134" viewBox="0 0 142 134" fill="none" xmlns="http://www.w3.org/2000/svg">
<path d="M54.8941 43.1977C57.3319 43.3407 59.0739 42.213 60.1202 39.8147C62.3424 34.7235 64.528 29.8451 66.677 25.1796C71.2137 15.3033 80.4635 3.91934 91.3271 2.3718C101.858 0.879629 102.842 13.9079 100.521 20.6701C98.2028 27.4436 96.049 34.4154 94.0595 41.5855C92.2364 48.1995 91.5694 55.1676 95.8424 60.9049C96.188 61.3699 96.6484 61.6555 97.2234 61.7618C103.52 62.8703 109.41 58.519 114.81 55.5791C120.686 52.373 131.221 50.4289 137.243 54.6465C146.397 61.0805 138.165 81.3759 133.649 89.2836C129.1 97.2433 124.313 104.492 119.289 111.031C99.7192 136.521 63.0323 138.021 35.3679 126.13C9.06284 114.831 -2.12113 92.5003 0.802057 64.4905C1.82373 54.7008 3.24815 45.1193 5.0753 35.7458C8.05085 20.5572 16.9177 2.31139 33.5062 0.402968C44.2027 -0.825884 50.6545 7.01308 50.9773 16.886C51.1721 22.9351 51.4068 29.117 51.6814 35.4319C51.7791 37.6855 52.3399 39.9236 53.364 42.1459C53.5021 42.4417 53.7165 42.6949 53.9854 42.8797C54.2542 43.0645 54.5678 43.1743 54.8941 43.1977Z" fill="#F7C8DC" fill-opacity="0.7"/>
</svg>
