<svg width="153" height="150" viewBox="0 0 153 150" fill="none" xmlns="http://www.w3.org/2000/svg">
<path d="M66.8742 3.31792C72.1507 -1.10597 80.792 -1.10597 86.145 3.31792L98.2274 13.5154C100.522 15.4649 104.804 17.0395 107.863 17.0395H120.863C128.969 17.0395 135.622 23.5629 135.622 31.5109V44.2577C135.622 47.182 137.228 51.4559 139.216 53.7053L149.616 65.5524C154.128 70.7261 154.128 79.199 149.616 84.4476L139.216 96.2947C137.228 98.5441 135.622 102.743 135.622 105.742V118.489C135.622 126.437 128.969 132.961 120.863 132.961H107.863C104.88 132.961 100.522 134.535 98.2274 136.485L86.145 146.682C80.8684 151.106 72.2272 151.106 66.8742 146.682L54.7917 136.485C52.4976 134.535 48.2152 132.961 45.1563 132.961H31.9268C23.8208 132.961 17.1678 126.437 17.1678 118.489V105.667C17.1678 102.743 15.5619 98.5441 13.6501 96.2947L3.3265 84.3727C-1.10883 79.199 -1.10883 70.8011 3.3265 65.6273L13.6501 53.7053C15.5619 51.4559 17.1678 47.2569 17.1678 44.3327V31.4359C17.1678 23.4879 23.8208 16.9645 31.9268 16.9645H45.1563C48.1387 16.9645 52.4976 15.3899 54.7917 13.4404L66.8742 3.31792Z" fill="#BBF6CD" fill-opacity="0.2"/>
<path d="M116.374 55.0047C119.966 57.2117 121.701 62.2767 120.243 66.3001L116.829 75.424C116.173 77.159 116.132 79.9844 116.746 81.7773L119.356 89.3972C120.983 94.1484 118.583 99.3542 114.032 100.946L106.733 103.498C105.059 104.084 102.934 105.881 102.045 107.496L97.3489 115.965C95.2922 119.645 90.4405 121.342 86.5292 119.748L77.6574 116.024C75.9701 115.309 73.2433 115.209 71.5259 115.81L64.2268 118.362C59.6757 119.953 54.6046 117.36 52.9772 112.609L50.3672 104.989C49.7685 103.241 47.9917 101.001 46.4148 100.047L38.1498 95.0068C34.5573 92.7999 32.8224 87.7349 34.2809 83.7115L37.6944 74.5876C38.3502 72.8525 38.3921 70.0272 37.778 68.2342L35.1219 60.4799C33.4945 55.7287 35.8942 50.5229 40.4454 48.9314L47.7874 46.364C49.4619 45.7785 51.5439 43.9964 52.4481 42.4254L57.2022 33.9871C59.2743 30.3514 64.0831 28.6699 67.9361 30.2336L76.8355 33.8975C78.5074 34.5676 81.2342 34.6681 82.9087 34.0826L90.2936 31.5002C94.8448 29.9087 99.9159 32.5021 101.543 37.2533L104.199 45.0076C104.798 46.7557 106.575 48.9953 108.152 49.9496L116.374 55.0047Z" fill="#92E5AB" fill-opacity="0.4"/>
<path d="M73.6689 52.5363C75.2208 51.1954 77.7623 51.1954 79.3368 52.5363L82.8904 55.6274C83.5652 56.2183 84.8247 56.6956 85.7244 56.6956H89.5479C91.932 56.6956 93.8888 58.673 93.8888 61.0822V64.9461C93.8888 65.8325 94.3611 67.128 94.9459 67.8098L98.0048 71.4009C99.3318 72.9692 99.3318 75.5375 98.0048 77.1285L94.9459 80.7196C94.3611 81.4014 93.8888 82.6742 93.8888 83.5834V87.4472C93.8888 89.8564 91.932 91.8338 89.5479 91.8338H85.7244C84.8472 91.8338 83.5652 92.3111 82.8904 92.902L79.3368 95.9931C77.7848 97.334 75.2433 97.334 73.6689 95.9931L70.1152 92.902C69.4405 92.3111 68.1809 91.8338 67.2813 91.8338H63.3902C61.0061 91.8338 59.0494 89.8564 59.0494 87.4472V83.5606C59.0494 82.6742 58.577 81.4014 58.0147 80.7196L54.9784 77.1058C53.6739 75.5375 53.6739 72.9919 54.9784 71.4237L58.0147 67.8098C58.577 67.128 59.0494 65.8552 59.0494 64.9688V61.0595C59.0494 58.6503 61.0061 56.6729 63.3902 56.6729H67.2813C68.1584 56.6729 69.4405 56.1956 70.1152 55.6047L73.6689 52.5363Z" fill="#00A733"/>
<path d="M68 74.2647L73.6588 79.8219L85 68.7075" stroke="#EBFAF0" stroke-width="2.27228" stroke-linecap="round" stroke-linejoin="round"/>
</svg>
