<svg width="126" height="134" viewBox="0 0 126 134" fill="none" xmlns="http://www.w3.org/2000/svg">
<path d="M70.0072 24.8307C87.0221 27.8302 106.304 15.0128 120.75 27.9851C125.15 31.9287 126.567 36.856 125.002 42.7668C120.972 58.0933 101.294 60.5469 88.7369 64.3304C62.5775 72.2114 66.582 99.0282 56.4763 118.777C50.6836 130.114 34.3487 139.625 23.7314 128.101C13.9922 117.547 18.8465 101.745 22.7234 89.7646C25.9132 79.9307 22.3379 68.9953 16.5113 60.9164C12.7118 55.6313 5.8593 48.257 2.93581 41.9526C-6.60175 21.3796 8.2062 -1.9989 31.3605 0.136154C39.7508 0.909125 46.9486 4.93841 52.0904 11.5831C56.8894 17.7997 61.891 23.402 70.0072 24.8307Z" fill="#FBA37E"/>
</svg>
