<svg width="95" height="101" viewBox="0 0 95 101" fill="none" xmlns="http://www.w3.org/2000/svg">
<path d="M52.5744 18.6475C65.3523 20.9001 79.8326 11.2744 90.6817 21.0164C93.9857 23.978 95.05 27.6783 93.8747 32.1173C90.8479 43.6273 76.0706 45.4699 66.6401 48.3112C46.9949 54.2298 50.0021 74.3688 42.4129 89.1999C38.0627 97.7137 25.7954 104.856 17.822 96.2022C10.5079 88.276 14.1534 76.4088 17.065 67.4119C19.4604 60.0268 16.7754 51.8145 12.3998 45.7473C9.54636 41.7783 4.40026 36.2404 2.20476 31.5058C-4.95781 16.0558 6.16275 -1.50114 23.5513 0.102251C29.8523 0.68274 35.2578 3.70867 39.1191 8.69874C42.7232 13.3673 46.4793 17.5745 52.5744 18.6475Z" fill="#C7CEFC"/>
</svg>
