<svg width="124" height="120" viewBox="0 0 124 120" fill="none" xmlns="http://www.w3.org/2000/svg">
<path d="M68.4168 50.8096C68.2188 51.9136 68.3567 51.9587 68.8303 50.9447C71.1116 46.0351 73.4783 40.8137 75.9303 35.2805C77.8074 31.0488 79.9288 27.7393 82.2946 25.352C86.4759 21.134 92.1841 17.3372 98.3158 18.0057C104.818 18.7073 110.814 21.557 116.304 26.5547C118.726 28.7593 120.35 30.997 121.177 33.268C123.11 38.537 123.563 43.9299 122.536 49.4468C119.071 68.0851 115.954 81.5735 113.183 89.912C109.954 99.633 106.616 109.415 103.172 119.258C103.047 119.624 102.796 119.751 102.418 119.638C82.0328 113.827 62.4338 108.008 43.6213 102.179C29.8468 97.9128 14.748 92.0415 0.236775 87.1251C0.153404 87.0973 0.0837643 87.0388 0.041996 86.9615C0.000225568 86.8842 -0.0105271 86.7939 0.0119267 86.709C2.7217 75.7935 5.7342 64.1503 9.04942 51.7795C13.1625 36.4521 16.496 25.8121 19.0501 19.8596C23.6371 9.17916 34.2407 -1.57675 47.0152 0.192044C56.0262 1.42981 65.2471 6.28962 69.2557 14.3383C71.2398 18.3197 72.0754 22.3536 71.7626 26.4399C71.1181 34.948 69.8736 42.7767 68.4168 50.8096Z" fill="#A3D8F4"/>
</svg>
