<svg width="85" height="90" viewBox="0 0 85 90" fill="none" xmlns="http://www.w3.org/2000/svg">
<path d="M16.0526 48.6127L5.68593 50.8924L2 35.9518L40.8174 25.644M16.0526 48.6127L22.2974 88L52.6487 82.7882M16.0526 48.6127L44.8398 42.2823M73.6269 35.9518L82.0537 34.0987L78.2526 15.7994L40.8174 25.644M73.6269 35.9518L83 77.5763L52.6487 82.7882M73.6269 35.9518L44.8398 42.2823M40.8174 25.644L44.8398 42.2823M40.8174 25.644C38.6289 13.3672 29.2989 -0.531064 21.1207 6.99714C11.7076 15.6622 27.9167 29.0697 40.8174 25.644ZM40.8174 25.644C38.5876 13.1355 44.5724 -2.72709 53.9485 1.78533C64.7779 6.99713 53.0846 22.3864 40.8174 25.644ZM44.8398 42.2823L52.6487 82.7882" stroke="#C7CEFC" stroke-width="1.99333"/>
</svg>
