<svg width="125" height="120" viewBox="0 0 125 120" fill="none" xmlns="http://www.w3.org/2000/svg">
<path d="M69.3789 51.0139C69.181 52.118 69.3188 52.1631 69.7924 51.1491C72.0737 46.2395 74.4404 41.0181 76.8925 35.4849C78.7695 31.2532 80.891 27.9437 83.2568 25.5563C87.4381 21.3384 93.1462 17.5416 99.2779 18.2101C105.78 18.9116 111.776 21.7613 117.266 26.7591C119.688 28.9637 121.312 31.2014 122.139 33.4724C124.073 38.7414 124.525 44.1343 123.498 49.6511C120.033 68.2895 116.916 81.7779 114.146 90.1164C110.916 99.8374 107.579 109.619 104.134 119.462C104.009 119.828 103.758 119.955 103.38 119.842C82.995 114.032 63.396 108.212 44.5834 102.383C30.809 98.1171 15.7101 92.2459 1.19893 87.3295C1.11556 87.3017 1.04592 87.2432 1.00415 87.1659C0.962386 87.0886 0.951631 86.9983 0.974085 86.9134C3.68386 75.9979 6.69636 64.3547 10.0116 51.9838C14.1246 36.6564 17.4582 26.0165 20.0122 20.0639C24.5993 9.38353 35.2028 -1.37237 47.9774 0.39642C56.9884 1.63419 66.2092 6.494 70.2178 14.5426C72.202 18.5241 73.0376 22.558 72.7248 26.6442C72.0803 35.1524 70.8357 42.9811 69.3789 51.0139Z" fill="#FBA37E"/>
</svg>
