<svg width="96" height="101" viewBox="0 0 96 101" fill="none" xmlns="http://www.w3.org/2000/svg">
<path d="M53.3166 19.2472C66.0945 21.4998 80.5747 11.8741 91.4239 21.6161C94.7279 24.5777 95.7922 28.278 94.6169 32.7169C91.5901 44.2269 76.8128 46.0695 67.3823 48.9109C47.737 54.8294 50.7443 74.9684 43.1551 89.7996C38.8049 98.3133 26.5376 105.456 18.5641 96.8019C11.2501 88.8757 14.8956 77.0085 17.8072 68.0116C20.2026 60.6265 17.5176 52.4141 13.142 46.347C10.2885 42.378 5.14245 36.84 2.94695 32.1055C-4.21563 16.6555 6.90493 -0.901474 24.2935 0.701921C30.5945 1.28241 35.9999 4.30835 39.8613 9.29842C43.4654 13.967 47.2215 18.1742 53.3166 19.2472Z" fill="#C7CEFC" fill-opacity="0.5"/>
</svg>
