<svg width="120" height="129" viewBox="0 0 120 129" fill="none" xmlns="http://www.w3.org/2000/svg">
<path d="M6.5292 73.258L1.20508 51.6198L57.2747 36.6912C38.6403 41.6527 15.2272 22.2349 28.8239 9.68549C40.6368 -1.21743 54.1135 18.9111 57.2747 36.6912C54.0538 18.5756 62.6986 -4.39788 76.2419 2.13735C91.8842 9.68548 74.994 31.9734 57.2747 36.6912L111.348 22.4336L116.838 48.936L104.666 51.6198L118.205 111.904L74.3643 119.452L30.5235 127L21.5033 69.9564L6.5292 73.258Z" fill="#FF9AA2"/>
<path d="M21.5033 69.9564L6.5292 73.258L1.20508 51.6198L57.2747 36.6912M21.5033 69.9564L30.5235 127L74.3643 119.452M21.5033 69.9564L63.0847 60.7881M104.666 51.6198L116.838 48.936L111.348 22.4336L57.2747 36.6912M104.666 51.6198L118.205 111.904L74.3643 119.452M104.666 51.6198L63.0847 60.7881M57.2747 36.6912L63.0847 60.7881M57.2747 36.6912C54.1135 18.9111 40.6368 -1.21743 28.8239 9.68549C15.2272 22.2349 38.6403 41.6527 57.2747 36.6912ZM57.2747 36.6912C54.0538 18.5756 62.6986 -4.39788 76.2419 2.13735C91.8842 9.68548 74.994 31.9734 57.2747 36.6912ZM63.0847 60.7881L74.3643 119.452" stroke="#F2EFE8" stroke-width="2"/>
</svg>
