<svg width="142" height="134" viewBox="0 0 142 134" fill="none" xmlns="http://www.w3.org/2000/svg">
<path d="M54.5451 42.9219C56.9829 43.0649 58.7249 41.9372 59.7712 39.5389C61.9934 34.4477 64.179 29.5693 66.328 24.9038C70.8648 15.0276 80.1145 3.64355 90.9781 2.09602C101.509 0.603841 102.493 13.6322 100.172 20.3943C97.8538 27.1678 95.7 34.1396 93.7105 41.3097C91.8874 47.9238 91.2204 54.8919 95.4934 60.6291C95.839 61.0941 96.2994 61.3798 96.8744 61.486C103.171 62.5946 109.061 58.2432 114.461 55.3033C120.338 52.0972 130.872 50.1531 136.894 54.3707C146.048 60.8047 137.816 81.1001 133.3 89.0078C128.751 96.9675 123.964 104.217 118.94 110.755C99.3703 136.245 62.6833 137.745 35.0189 125.854C8.71386 114.556 -2.47011 92.2245 0.453073 64.2148C1.47475 54.4251 2.89917 44.8435 4.72632 35.4701C7.70186 20.2814 16.5687 2.0356 33.1572 0.12718C43.8537 -1.10167 50.3055 6.73729 50.6284 16.6102C50.8231 22.6593 51.0578 28.8413 51.3324 35.1561C51.4301 37.4097 51.991 39.6478 53.015 41.8702C53.1531 42.1659 53.3675 42.4191 53.6364 42.6039C53.9052 42.7887 54.2188 42.8985 54.5451 42.9219Z" fill="#F7C8DC" fill-opacity="0.7"/>
</svg>
