<svg width="216" height="147" viewBox="0 0 216 147" fill="none" xmlns="http://www.w3.org/2000/svg">
<path d="M166.628 145.568C106.771 149.936 53.7144 128.87 22.4497 75.9706C11.8144 57.9274 2.61477 37.4299 0.0203193 15.5513C-0.105218 14.5062 0.343378 13.8706 1.36602 13.6445L60.2134 0.0554769C60.5215 -0.0139645 60.8406 -0.0182317 61.1505 0.0429379C61.4603 0.104093 61.7539 0.229276 62.0125 0.410578C62.2711 0.59188 62.4891 0.825292 62.6523 1.09573C62.8154 1.36617 62.9203 1.66769 62.9602 1.98105C64.7671 17.3939 69.5654 31.5035 77.355 44.3098C104.435 88.9 152.344 85.4856 196.202 74.6034C196.427 74.5466 196.661 74.5351 196.891 74.5697C197.12 74.6043 197.341 74.6843 197.539 74.8049C197.738 74.9255 197.91 75.0844 198.047 75.2723C198.184 75.4603 198.281 75.6735 198.335 75.8996C202.888 94.9089 208.548 113.99 215.314 133.144C216.104 135.361 215.365 136.791 213.098 137.433C198.075 141.704 182.586 144.415 166.628 145.568Z" fill="#A3D8F4"/>
</svg>
